<svg xmlns="http://www.w3.org/2000/svg" width="1024" height="1024" viewBox="0 0 1024 1024">
<defs><radialGradient id="bg" cx="50%" cy="45%" r="75%"><stop offset="0%" stop-color="#e7ecdc"/><stop offset="100%" stop-color="#a9b595"/></radialGradient></defs>
<rect width="1024" height="1024" fill="url(#bg)"/>
<g transform="translate(0 0)" opacity="0.3"><path d="M200 770 L200 800 A100 30 0 0 0 400 800 L400 770 Z" fill="#c8953c" stroke="#2e211b" stroke-linejoin="round" stroke-linecap="round" stroke-width="10"/><path d="M200 740 L200 770 A100 30 0 0 0 400 770 L400 740 Z" fill="#c8953c" stroke="#2e211b" stroke-linejoin="round" stroke-linecap="round" stroke-width="10"/><path d="M200 710 L200 740 A100 30 0 0 0 400 740 L400 710 Z" fill="#c8953c" stroke="#2e211b" stroke-linejoin="round" stroke-linecap="round" stroke-width="10"/><path d="M200 680 L200 710 A100 30 0 0 0 400 710 L400 680 Z" fill="#c8953c" stroke="#2e211b" stroke-linejoin="round" stroke-linecap="round" stroke-width="10"/><path d="M200 650 L200 680 A100 30 0 0 0 400 680 L400 650 Z" fill="#c8953c" stroke="#2e211b" stroke-linejoin="round" stroke-linecap="round" stroke-width="10"/><path d="M200 620 L200 650 A100 30 0 0 0 400 650 L400 620 Z" fill="#c8953c" stroke="#2e211b" stroke-linejoin="round" stroke-linecap="round" stroke-width="10"/><path d="M200 590 L200 620 A100 30 0 0 0 400 620 L400 590 Z" fill="#c8953c" stroke="#2e211b" stroke-linejoin="round" stroke-linecap="round" stroke-width="10"/><path d="M200 560 L200 590 A100 30 0 0 0 400 590 L400 560 Z" fill="#c8953c" stroke="#2e211b" stroke-linejoin="round" stroke-linecap="round" stroke-width="10"/><path d="M200 530 L200 560 A100 30 0 0 0 400 560 L400 530 Z" fill="#c8953c" stroke="#2e211b" stroke-linejoin="round" stroke-linecap="round" stroke-width="10"/><ellipse cx="300" cy="530" rx="100" ry="30" fill="#e0b04f" stroke="#2e211b" stroke-linejoin="round" stroke-linecap="round" stroke-width="10"/><ellipse cx="300" cy="530" rx="62.0" ry="18.0" fill="none" stroke="#2e211b" stroke-width="6" opacity="0.4"/></g><ellipse cx="620" cy="800" rx="140" ry="22.400000000000002" fill="#2e211b" opacity="0.15"/><g transform="translate(640 420) rotate(-8)"><path d="M-95 0 Q-170 -60 -150 -150" fill="none" stroke="#2e211b" stroke-linejoin="round" stroke-linecap="round" stroke-width="8.0"/><path d="M-160 0 L-90 -95 L170 -95 Q185 -95 185 -80 L185 80 Q185 95 170 95 L-90 95 Z" fill="#7fa05a" stroke="#2e211b" stroke-linejoin="round" stroke-linecap="round" stroke-width="14.0"/><path d="M100 -95 L170 -95 Q185 -95 185 -80 L185 80 Q185 95 170 95 L100 95 Z" fill="#2e211b" opacity="0.12"/><circle cx="-95" cy="0" r="20" fill="#f6ecd8" stroke="#2e211b" stroke-linejoin="round" stroke-linecap="round" stroke-width="9.0"/><path d="M13.175999999999998 -46.8 L13.175999999999998 46.8 M13.175999999999998 -46.8 L49.68 -46.8 Q73.08 -46.8 73.08 -24.336 Q73.08 0.0 49.68 0.0 L13.175999999999998 0.0 M49.68 0.0 L54.36 0.0 Q80.568 0.0 80.568 23.4 Q80.568 46.8 54.36 46.8 L13.175999999999998 46.8 M41.256 -63.648 L41.256 63.648" fill="none" stroke="#2e211b" stroke-width="29.64" stroke-linecap="round" stroke-linejoin="round"/><path d="M13.175999999999998 -46.8 L13.175999999999998 46.8 M13.175999999999998 -46.8 L49.68 -46.8 Q73.08 -46.8 73.08 -24.336 Q73.08 0.0 49.68 0.0 L13.175999999999998 0.0 M49.68 0.0 L54.36 0.0 Q80.568 0.0 80.568 23.4 Q80.568 46.8 54.36 46.8 L13.175999999999998 46.8 M41.256 -63.648 L41.256 63.648" fill="none" stroke="#f6ecd8" stroke-width="14.04" stroke-linecap="round" stroke-linejoin="round"/></g><circle cx="620" cy="700" r="85" fill="#e0b04f" stroke="#2e211b" stroke-linejoin="round" stroke-linecap="round" stroke-width="12"/><circle cx="620" cy="700" r="61.199999999999996" fill="none" stroke="#2e211b" stroke-width="7" opacity="0.5"/><path d="M573.25 670.25 Q586.0 647.3 611.5 643.9" fill="none" stroke="#fff" stroke-width="9" opacity="0.45" stroke-linecap="round"/><path d="M602.3132 673.48 L602.3132 725.5 M602.3132 673.48 L622.601 673.48 Q635.606 673.48 635.606 685.9648 Q635.606 699.49 622.601 699.49 L602.3132 699.49 M622.601 699.49 L625.202 699.49 Q639.7676 699.49 639.7676 712.495 Q639.7676 725.5 625.202 725.5 L602.3132 725.5 M617.9192 664.1164 L617.9192 734.8636" fill="none" stroke="#2e211b" stroke-width="20.043" stroke-linecap="round" stroke-linejoin="round"/><path d="M602.3132 673.48 L602.3132 725.5 M602.3132 673.48 L622.601 673.48 Q635.606 673.48 635.606 685.9648 Q635.606 699.49 622.601 699.49 L602.3132 699.49 M622.601 699.49 L625.202 699.49 Q639.7676 699.49 639.7676 712.495 Q639.7676 725.5 625.202 725.5 L602.3132 725.5 M617.9192 664.1164 L617.9192 734.8636" fill="none" stroke="#f6ecd8" stroke-width="7.802999999999999" stroke-linecap="round" stroke-linejoin="round"/><path d="M840 560 L840 700" fill="none" stroke="#2e211b" stroke-width="50" stroke-linecap="round" stroke-linejoin="round"/><polygon points="800,680 880,680 840,740" fill="#7fa05a" stroke="#2e211b" stroke-linejoin="round" stroke-linecap="round" stroke-width="12"/><path d="M840 560 L840 700" fill="none" stroke="#7fa05a" stroke-width="26" stroke-linecap="round" stroke-linejoin="round"/><polygon points="800,680 880,680 840,740" fill="#7fa05a"/>
</svg>
