<svg xmlns="http://www.w3.org/2000/svg" width="1024" height="1024" viewBox="0 0 1024 1024">
<defs>
  <radialGradient id="bg" cx="50%" cy="45%" r="75%"><stop offset="0%" stop-color="#f5ead0"/><stop offset="100%" stop-color="#cfb27e"/></radialGradient>
</defs>
<rect width="1024" height="1024" fill="url(#bg)"/>
<ellipse cx="470" cy="850" rx="230" ry="36.800000000000004" fill="#2e211b" opacity="0.15"/><g transform="translate(470 850)"><path d="M-130 -30 Q-130 0 -100 0 L100 0 Q130 0 130 -30 L130 -380 Q130 -420 60 -440 L60 -480 L-60 -480 L-60 -440 Q-130 -420 -130 -380 Z" fill="#d98f3a" fill-opacity="0.9" stroke="#2e211b" stroke-linejoin="round" stroke-linecap="round" stroke-width="14"/><path d="M50 -10 L120 -10 L120 -380 Q115 -410 60 -425 Z" fill="#2e211b" opacity="0.13"/><path d="M-100 -60 L-100 -370" stroke="#ffffff" stroke-width="18" opacity="0.4" stroke-linecap="round"/><rect x="-130" y="-300" width="260" height="170" fill="#f6ecd8" stroke="#2e211b" stroke-linejoin="round" stroke-linecap="round" stroke-width="11"/><g transform="translate(0 -215)"><path d="M0 -42 L36.54 -21.0 L0 0 L-36.54 -21.0 Z" fill="#ffffff" stroke="#2e211b" stroke-linejoin="round" stroke-linecap="round" stroke-width="9"/><path d="M-36.54 -21.0 L0 0 L0 42 L-36.54 21.0 Z" fill="#f1e9dc" stroke="#2e211b" stroke-linejoin="round" stroke-linecap="round" stroke-width="9"/><path d="M36.54 -21.0 L0 0 L0 42 L36.54 21.0 Z" fill="#d9ccb7" stroke="#2e211b" stroke-linejoin="round" stroke-linecap="round" stroke-width="9"/><circle cx="-16.443" cy="6.3" r="2.52" fill="#2e211b" opacity="0.18"/><circle cx="-21.924" cy="18.900000000000002" r="2.1" fill="#2e211b" opacity="0.18"/><circle cx="18.27" cy="12.6" r="2.52" fill="#2e211b" opacity="0.2"/><circle cx="-3.654" cy="-23.1" r="2.52" fill="#2e211b" opacity="0.12"/></g><rect x="-70" y="-530" width="140" height="60" rx="12" fill="#5c3d2e" stroke="#2e211b" stroke-linejoin="round" stroke-linecap="round" stroke-width="12"/><rect x="-16" y="-620" width="32" height="95" fill="#c9cdd0" stroke="#2e211b" stroke-linejoin="round" stroke-linecap="round" stroke-width="10"/><path d="M-50 -650 L150 -650 L150 -610 L-50 -610 Z" fill="#5c3d2e" stroke="#2e211b" stroke-linejoin="round" stroke-linecap="round" stroke-width="12"/><path d="M150 -630 L230 -630 L230 -590" fill="none" stroke="#2e211b" stroke-width="30" stroke-linecap="round" stroke-linejoin="round"/><path d="M150 -630 L230 -630 L230 -590" fill="none" stroke="#5c3d2e" stroke-width="12" stroke-linecap="round" stroke-linejoin="round"/><path d="M230 -560 Q205 -515 205 -495 Q205 -470 230 -470 Q255 -470 255 -495 Q255 -515 230 -560 Z" fill="#d98f3a" stroke="#2e211b" stroke-linejoin="round" stroke-linecap="round" stroke-width="10"/></g><path d="M700 780 Q640 790 650 820 Q670 845 760 840 Q840 835 830 805 Q815 780 760 790 Q740 770 700 780 Z" fill="#d98f3a" stroke="#2e211b" stroke-linejoin="round" stroke-linecap="round" stroke-width="11"/><path d="M690 805 Q720 795 745 800" fill="none" stroke="#ffffff" stroke-width="10" opacity="0.5" stroke-linecap="round"/>
</svg>
