<svg xmlns="http://www.w3.org/2000/svg" width="1024" height="1024" viewBox="0 0 1024 1024">
<defs>
  <radialGradient id="bg" cx="50%" cy="45%" r="75%"><stop offset="0%" stop-color="#e7ecdc"/><stop offset="100%" stop-color="#a9b595"/></radialGradient>

</defs>
<rect width="1024" height="1024" fill="url(#bg)"/>
<g stroke="#2e211b" stroke-linejoin="round" stroke-linecap="round">

<ellipse cx="300" cy="790" rx="160" ry="25" fill="#2e211b" opacity="0.15" stroke="none"/><ellipse cx="660" cy="705" rx="220" ry="28" fill="#2e211b" opacity="0.15" stroke="none"/>
<g opacity="0.4"><g transform="translate(150 560) rotate(0) scale(0.85)" opacity="1">
<path d="M-10 -20 L-30 -60 L0 -70 L15 -25Z" fill="#7a5a3a" stroke-width="12"/>
<path d="M-15 -20 C-15 170 160 270 345 200 C370 190 362 158 335 160 C200 175 100 100 40 -30 Z" fill="#8fb060" stroke-width="16"/>
<path d="M20 10 C50 120 150 185 270 180" fill="none" stroke="#ffffff" stroke-width="14" opacity="0.35"/>
<path d="M5 30 C40 150 150 215 280 205" fill="none" stroke-width="8" opacity="0.35"/>

</g></g>
<circle cx="660" cy="540" r="250" fill="#ffffff" opacity="0.35" stroke="none"/>
<g transform="translate(450 390) rotate(0) scale(1.2)" opacity="1">
<path d="M-10 -20 L-30 -60 L0 -70 L15 -25Z" fill="#7a5a3a" stroke-width="8"/>
<path d="M-15 -20 C-15 170 160 270 345 200 C370 190 362 158 335 160 C200 175 100 100 40 -30 Z" fill="#e8b84a" stroke-width="12"/>
<path d="M20 10 C50 120 150 185 270 180" fill="none" stroke="#ffffff" stroke-width="10" opacity="0.35"/>
<path d="M5 30 C40 150 150 215 280 205" fill="none" stroke-width="6" opacity="0.35"/>
<ellipse cx="90" cy="95" rx="9" ry="6" fill="#5c3d2e" stroke="none" opacity="0.8"/><ellipse cx="170" cy="140" rx="9" ry="6" fill="#5c3d2e" stroke="none" opacity="0.8"/><ellipse cx="240" cy="160" rx="9" ry="6" fill="#5c3d2e" stroke="none" opacity="0.8"/><ellipse cx="130" cy="110" rx="9" ry="6" fill="#5c3d2e" stroke="none" opacity="0.8"/>
</g>
<path transform="translate(820 380) scale(0.9)" d="M0 -40 Q6 -6 40 0 Q6 6 0 40 Q-6 6 -40 0 Q-6 -6 0 -40Z" fill="#e0b04f" stroke-width="8"/><path transform="translate(560 330) scale(0.6)" d="M0 -40 Q6 -6 40 0 Q6 6 0 40 Q-6 6 -40 0 Q-6 -6 0 -40Z" fill="#e0b04f" stroke-width="12"/><path transform="translate(850 650) scale(0.6)" d="M0 -40 Q6 -6 40 0 Q6 6 0 40 Q-6 6 -40 0 Q-6 -6 0 -40Z" fill="#d9825b" stroke-width="12"/>

</g>
</svg>