<svg xmlns="http://www.w3.org/2000/svg" width="1024" height="1024" viewBox="0 0 1024 1024">
<defs><radialGradient id="bg" cx="50%" cy="45%" r="75%"><stop offset="0%" stop-color="#e7ecdc"/><stop offset="100%" stop-color="#a9b595"/></radialGradient></defs>
<rect width="1024" height="1024" fill="url(#bg)"/>
<path d="M512 110 L512 914" fill="none" stroke="#2e211b" stroke-width="328" stroke-linejoin="round"/>
<path d="M512 110 L512 914" fill="none" stroke="#8f8780" stroke-width="300" stroke-linejoin="round"/>
<path d="M512 110 L512 914" fill="none" stroke="#f6ecd8" stroke-width="12" stroke-dasharray="40 34"/>
<path d="M362 120 L362 904" stroke="#e0b04f" stroke-width="16" stroke-linecap="round"/><circle cx="228" cy="310" r="60" fill="#2e211b" opacity="0.15"/><circle cx="220" cy="300" r="60" fill="#5f8f4e" stroke="#2e211b" stroke-width="10" stroke-linejoin="round" stroke-linecap="round"/><circle cx="202.0" cy="282.0" r="21.0" fill="#fff" opacity="0.2"/>
<circle cx="818" cy="710" r="60" fill="#2e211b" opacity="0.15"/><circle cx="810" cy="700" r="60" fill="#5f8f4e" stroke="#2e211b" stroke-width="10" stroke-linejoin="round" stroke-linecap="round"/><circle cx="792.0" cy="682.0" r="21.0" fill="#fff" opacity="0.2"/>
<circle cx="828" cy="270" r="45" fill="#2e211b" opacity="0.15"/><circle cx="820" cy="260" r="45" fill="#5f8f4e" stroke="#2e211b" stroke-width="10" stroke-linejoin="round" stroke-linecap="round"/><circle cx="806.5" cy="246.5" r="15.749999999999998" fill="#fff" opacity="0.2"/>
<g transform="translate(420,790) rotate(0) scale(1.0)"><rect x="-52" y="-50" width="14" height="30" rx="5" fill="#2e211b"/><rect x="38" y="-50" width="14" height="30" rx="5" fill="#2e211b"/><rect x="-52" y="30" width="14" height="30" rx="5" fill="#2e211b"/><rect x="38" y="30" width="14" height="30" rx="5" fill="#2e211b"/><rect x="-46" y="-80" width="92" height="160" rx="30" fill="#5d82a8" stroke="#2e211b" stroke-width="12" stroke-linejoin="round" stroke-linecap="round"/><path d="M-34 -30 Q0 -44 34 -30 L30 -8 Q0 -16 -30 -8 Z" fill="#cfe0ea" stroke="#2e211b" stroke-width="8" stroke-linejoin="round" stroke-linecap="round"/><path d="M-30 40 Q0 34 30 40 L32 58 Q0 64 -32 58 Z" fill="#cfe0ea" stroke="#2e211b" stroke-width="8" stroke-linejoin="round" stroke-linecap="round"/><rect x="-30" y="-6" width="60" height="44" rx="10" fill="#fff" opacity="0.2"/><circle cx="-28" cy="-70" r="7" fill="#f6ecd8"/><circle cx="28" cy="-70" r="7" fill="#f6ecd8"/></g>
<path d="M420 700 L420 250" fill="none" stroke="#2e211b" stroke-width="70" stroke-linecap="round" stroke-linejoin="round"/>
<polygon points="475.2,250.0 420.0,180.0 364.8,250.0" fill="#e0b04f" stroke="#2e211b" stroke-width="12" stroke-linejoin="round" stroke-linecap="round" />
<path d="M420 700 L420 250" fill="none" stroke="#e0b04f" stroke-width="46" stroke-linecap="round" stroke-linejoin="round"/>
<path d="M420.0 270.0 L420.0 242.0" stroke="#e0b04f" stroke-width="46"/>
<path d="M420 700 L420 250" fill="none" stroke="#fff" stroke-width="12" opacity="0.3" stroke-linecap="round" stroke-linejoin="round" transform="translate(-9.2,-0.0)"/>
<path d="M610 330 L510 330" stroke="#2e211b" stroke-width="14" stroke-linecap="round"/><path d="M539.7 309.7 L510 330 L539.7 350.3" fill="none" stroke="#2e211b" stroke-width="14" stroke-linejoin="round" stroke-linecap="round"/>
<path d="M610 480 L510 480" stroke="#2e211b" stroke-width="14" stroke-linecap="round"/><path d="M539.7 459.7 L510 480 L539.7 500.3" fill="none" stroke="#2e211b" stroke-width="14" stroke-linejoin="round" stroke-linecap="round"/>
<path d="M610 630 L510 630" stroke="#2e211b" stroke-width="14" stroke-linecap="round"/><path d="M539.7 609.7 L510 630 L539.7 650.3" fill="none" stroke="#2e211b" stroke-width="14" stroke-linejoin="round" stroke-linecap="round"/>

</svg>
