<svg xmlns="http://www.w3.org/2000/svg" width="1024" height="1024" viewBox="0 0 1024 1024">
<defs><radialGradient id="bg" cx="50%" cy="45%" r="75%"><stop offset="0%" stop-color="#f5ead0"/><stop offset="100%" stop-color="#cfb27e"/></radialGradient></defs>
<rect width="1024" height="1024" fill="url(#bg)"/>
<path d="M296 366.0 L330 440 L364 366.0 Z" fill="#fffaf0" stroke="#2e211b" stroke-linejoin="round" stroke-linecap="round" stroke-width="12"/><rect x="230.0" y="110.0" width="400" height="260" rx="70" fill="#fffaf0" stroke="#2e211b" stroke-linejoin="round" stroke-linecap="round" stroke-width="12"/><path d="M296 366.0 L330 440 L364 366.0 Z" fill="#fffaf0" stroke="none" transform="translate(0,-7)"/><g transform="translate(380,285) scale(0.75)"><path d="M-40 -80 Q-60 -110 -40 -140 Q-20 -170 -40 -200 M0 -90 Q-20 -125 0 -155 Q20 -185 0 -215 M40 -80 Q20 -110 40 -140 Q60 -170 40 -200" fill="none" stroke="#2e211b" stroke-linejoin="round" stroke-linecap="round" stroke-width="10" opacity="0.55"/><path d="M-84 0 Q-70 -70 0 -76 Q70 -70 84 0 Z" fill="#ffffff" stroke="#2e211b" stroke-linejoin="round" stroke-linecap="round" stroke-width="12"/><path d="M-40 -30 l10 -6 M10 -50 l10 -4 M30 -20 l10 -6 M-15 -15 l10 -4" fill="none" stroke="#2e211b" stroke-linejoin="round" stroke-linecap="round" stroke-width="6" opacity="0.5"/><path d="M60 -10 L180 -120 M80 -2 L195 -100" fill="none" stroke="none"/><path d="M40 -15 L175 -125" fill="none" stroke="#2e211b" stroke-width="22" stroke-linecap="round" stroke-linejoin="round"/><path d="M40 -15 L175 -125" fill="none" stroke="#9a6a45" stroke-width="10" stroke-linecap="round" stroke-linejoin="round"/><path d="M60 -5 L195 -105" fill="none" stroke="#2e211b" stroke-width="22" stroke-linecap="round" stroke-linejoin="round"/><path d="M60 -5 L195 -105" fill="none" stroke="#9a6a45" stroke-width="10" stroke-linecap="round" stroke-linejoin="round"/><path d="M-100 0 Q-95 95 0 100 Q95 95 100 0 Z" fill="#f6ecd8" stroke="#2e211b" stroke-linejoin="round" stroke-linecap="round" stroke-width="12"/><path d="M-92 34 Q0 50 92 34" fill="none" stroke="#5d82a8" stroke-width="14" opacity="0.9"/><path d="M-80 60 Q-50 88 -10 92" fill="none" stroke="#ffffff" stroke-linejoin="round" stroke-linecap="round" stroke-width="10" opacity="0.4"/><rect x="-40" y="96" width="80" height="22" rx="8" fill="#f6ecd8" stroke="#2e211b" stroke-linejoin="round" stroke-linecap="round" stroke-width="10"/></g>
<text x="560" y="320" font-family="Arial, Helvetica, sans-serif" font-weight="bold" font-size="190" text-anchor="middle" fill="#c8574b" stroke="#2e211b" stroke-width="17.1" stroke-linejoin="round" paint-order="stroke">?</text><g transform="translate(300,575) scale(0.9)"><g transform="rotate(0 0 125)"><path d="M-124 40 Q-130 -90 0 -90 Q130 -84 124 40 Q134 146 75 168 L-75 168 Q-134 146 -124 40 Z" fill="#3b2a22" stroke="#2e211b" stroke-linejoin="round" stroke-linecap="round" stroke-width="12"/></g><rect x="-24" y="100" width="48" height="70" rx="0" fill="#f1c9a5" stroke="#2e211b" stroke-linejoin="round" stroke-linecap="round" stroke-width="10"/><path d="M-114 340 Q-118 178 0 160 Q118 178 114 340 Z" fill="#d9825b" stroke="#2e211b" stroke-linejoin="round" stroke-linecap="round" stroke-width="12"/><path d="M-96 320 Q-100 220 -40 190" fill="none" stroke="#ffffff" stroke-linejoin="round" stroke-linecap="round" stroke-width="14" opacity="0.3"/><path d="M-38 166 L0 215 L38 166" fill="none" stroke="#2e211b" stroke-linejoin="round" stroke-linecap="round" stroke-width="9"/><g transform="rotate(0 0 125) translate(0,28)"><circle cx="0" cy="0" r="100" fill="#f1c9a5" stroke="#2e211b" stroke-linejoin="round" stroke-linecap="round" stroke-width="12"/><path d="M-98 -18 Q-78 -100 0 -100 Q81 -100 99 -18 Q51 -53 0 -59 Q-54 -59 -98 -18 Z" fill="#3b2a22" stroke="none"/><circle cx="-36" cy="6" r="9" fill="#2e211b" /><circle cx="36" cy="6" r="9" fill="#2e211b" /><circle cx="-58" cy="36" r="16" fill="#e8907f" opacity="0.55"/><circle cx="58" cy="36" r="16" fill="#e8907f" opacity="0.55"/><path d="M-26 46 Q0 70 26 46" fill="none" stroke="#2e211b" stroke-linejoin="round" stroke-linecap="round" stroke-width="7"/><circle cx="-101" cy="30" r="7" fill="#e0b04f" stroke="#2e211b" stroke-linejoin="round" stroke-linecap="round" stroke-width="5"/><circle cx="101" cy="30" r="7" fill="#e0b04f" stroke="#2e211b" stroke-linejoin="round" stroke-linecap="round" stroke-width="5"/></g><path d="M92 205 L165 280 L255 235" fill="none" stroke="#2e211b" stroke-width="46" stroke-linecap="round" stroke-linejoin="round"/><path d="M165 280 L255 235" fill="none" stroke="#f1c9a5" stroke-width="30" stroke-linecap="round"/><path d="M92 205 L165 280" fill="none" stroke="#d9825b" stroke-width="32" stroke-linecap="round"/><g transform="translate(255,235) rotate(63.43494882292201) scale(1.25)"><rect x="-22" y="-42" width="14" height="42" rx="7" fill="#f1c9a5" stroke="#2e211b" stroke-linejoin="round" stroke-linecap="round" stroke-width="8"/><rect x="-10" y="-48" width="14" height="48" rx="7" fill="#f1c9a5" stroke="#2e211b" stroke-linejoin="round" stroke-linecap="round" stroke-width="8"/><rect x="3" y="-46" width="14" height="46" rx="7" fill="#f1c9a5" stroke="#2e211b" stroke-linejoin="round" stroke-linecap="round" stroke-width="8"/><rect x="15" y="-38" width="14" height="38" rx="7" fill="#f1c9a5" stroke="#2e211b" stroke-linejoin="round" stroke-linecap="round" stroke-width="8"/><ellipse cx="-26" cy="4" rx="9" ry="20" fill="#f1c9a5" stroke="#2e211b" stroke-linejoin="round" stroke-linecap="round" stroke-width="8" transform="rotate(-40 -26 4)"/><ellipse cx="0" cy="6" rx="28" ry="24" fill="#f1c9a5" stroke="#2e211b" stroke-linejoin="round" stroke-linecap="round" stroke-width="10"/><rect x="-19" y="-6" width="38" height="20" rx="0" fill="#f1c9a5" /></g></g>
<g transform="translate(724,575) scale(0.9)"><rect x="-24" y="100" width="48" height="70" rx="0" fill="#e0a882" stroke="#2e211b" stroke-linejoin="round" stroke-linecap="round" stroke-width="10"/><path d="M-114 340 Q-118 178 0 160 Q118 178 114 340 Z" fill="#5d82a8" stroke="#2e211b" stroke-linejoin="round" stroke-linecap="round" stroke-width="12"/><path d="M-96 320 Q-100 220 -40 190" fill="none" stroke="#ffffff" stroke-linejoin="round" stroke-linecap="round" stroke-width="14" opacity="0.3"/><path d="M-30 164 L-42 205 L0 180 L42 205 L30 164" fill="#f6ecd8" stroke="#2e211b" stroke-linejoin="round" stroke-linecap="round" stroke-width="8"/><path d="M0 185 L0 335" fill="none" stroke="#2e211b" stroke-linejoin="round" stroke-linecap="round" stroke-width="7"/><circle cx="0" cy="240" r="6" fill="#f6ecd8" stroke="#2e211b" stroke-linejoin="round" stroke-linecap="round" stroke-width="5"/><circle cx="0" cy="290" r="6" fill="#f6ecd8" stroke="#2e211b" stroke-linejoin="round" stroke-linecap="round" stroke-width="5"/><g transform="rotate(0 0 125) translate(0,28)"><circle cx="-100" cy="12" r="20" fill="#e0a882" stroke="#2e211b" stroke-linejoin="round" stroke-linecap="round" stroke-width="10"/><circle cx="100" cy="12" r="20" fill="#e0a882" stroke="#2e211b" stroke-linejoin="round" stroke-linecap="round" stroke-width="10"/><circle cx="0" cy="0" r="100" fill="#e0a882" stroke="#2e211b" stroke-linejoin="round" stroke-linecap="round" stroke-width="12"/><path d="M-102 0 Q-110 -112 0 -116 Q110 -112 102 0 Q96 -40 70 -55 Q30 -40 -10 -62 Q-60 -48 -90 -25 Z" fill="#3b2a22" stroke="#2e211b" stroke-linejoin="round" stroke-linecap="round" stroke-width="10"/><circle cx="-36" cy="6" r="9" fill="#2e211b" /><circle cx="36" cy="6" r="9" fill="#2e211b" /><circle cx="-58" cy="36" r="16" fill="#e8907f" opacity="0.55"/><circle cx="58" cy="36" r="16" fill="#e8907f" opacity="0.55"/><ellipse cx="0" cy="56" rx="10" ry="13" fill="#a8453c" stroke="#2e211b" stroke-linejoin="round" stroke-linecap="round" stroke-width="7"/></g></g>

</svg>
