<svg xmlns="http://www.w3.org/2000/svg" width="1024" height="1024" viewBox="0 0 1024 1024">
<defs><radialGradient id="bg" cx="50%" cy="45%" r="75%"><stop offset="0%" stop-color="#f1e0dc"/><stop offset="100%" stop-color="#bf9a98"/></radialGradient></defs>
<rect width="1024" height="1024" fill="url(#bg)"/>
<ellipse cx="512" cy="866" rx="340" ry="28" fill="#2e211b" opacity="0.15"/>
<rect x="410" y="200" width="16" height="30" rx="0" fill="#5c3d2e" stroke="#2e211b" stroke-width="6" stroke-linejoin="round" stroke-linecap="round" />
<rect x="598" y="200" width="16" height="30" rx="0" fill="#5c3d2e" stroke="#2e211b" stroke-width="6" stroke-linejoin="round" stroke-linecap="round" />
<rect x="360" y="100" width="304" height="110" rx="18" fill="#f6ecd8" stroke="#2e211b" stroke-width="12" stroke-linejoin="round" stroke-linecap="round" />
<g transform="translate(512 180) rotate(0) scale(0.95)">
<rect x="-50" y="-34" width="14" height="70" rx="4" fill="#9a6a45" stroke="#2e211b" stroke-width="6" stroke-linejoin="round" stroke-linecap="round" />
<rect x="-44" y="0" width="92" height="20" rx="5" fill="#f6ecd8" stroke="#2e211b" stroke-width="6" stroke-linejoin="round" stroke-linecap="round" />
<ellipse cx="-24" cy="-8" rx="14" ry="9" fill="#ffffff" stroke="#2e211b" stroke-width="5" stroke-linejoin="round" stroke-linecap="round" />
<path d="M-6 -12 L44 -12 Q50 -12 50 -4 L50 4 L-6 4 Z" fill="#5d82a8" stroke="#2e211b" stroke-width="6" stroke-linejoin="round" stroke-linecap="round" />
<line x1="-40" y1="22" x2="-40" y2="34" stroke="#2e211b" stroke-width="6" stroke-linecap="round" />
<line x1="42" y1="22" x2="42" y2="34" stroke="#2e211b" stroke-width="6" stroke-linecap="round" />
</g>
<polygon points="462.0,115.0 466.5,125.8 478.2,126.7 469.3,134.4 472.0,145.8 462.0,139.7 452.0,145.8 454.7,134.4 445.8,126.7 457.5,125.8" fill="#e0b04f" stroke="#2e211b" stroke-width="5" stroke-linejoin="round" stroke-linecap="round" />
<polygon points="512.0,115.0 516.5,125.8 528.2,126.7 519.3,134.4 522.0,145.8 512.0,139.7 502.0,145.8 504.7,134.4 495.8,126.7 507.5,125.8" fill="#e0b04f" stroke="#2e211b" stroke-width="5" stroke-linejoin="round" stroke-linecap="round" />
<polygon points="562.0,115.0 566.5,125.8 578.2,126.7 569.3,134.4 572.0,145.8 562.0,139.7 552.0,145.8 554.7,134.4 545.8,126.7 557.5,125.8" fill="#e0b04f" stroke="#2e211b" stroke-width="5" stroke-linejoin="round" stroke-linecap="round" />
<rect x="320" y="226" width="384" height="634" rx="0" fill="#e3a57f" stroke="#2e211b" stroke-width="14" stroke-linejoin="round" stroke-linecap="round" />
<rect x="660" y="232" width="38" height="622" rx="0" fill="#2e211b" opacity="0.1"/>
<rect x="304" y="220" width="416" height="28" rx="6" fill="#5c3d2e" stroke="#2e211b" stroke-width="10" stroke-linejoin="round" stroke-linecap="round" />
<rect x="360" y="270" width="80" height="44" rx="4" fill="#bfdde6" stroke="#2e211b" stroke-width="7" stroke-linejoin="round" stroke-linecap="round" />
<rect x="354" y="310" width="92" height="14" rx="3" fill="#f6ecd8" stroke="#2e211b" stroke-width="6" stroke-linejoin="round" stroke-linecap="round" />
<rect x="472" y="270" width="80" height="44" rx="4" fill="#bfdde6" stroke="#2e211b" stroke-width="7" stroke-linejoin="round" stroke-linecap="round" />
<rect x="466" y="310" width="92" height="14" rx="3" fill="#f6ecd8" stroke="#2e211b" stroke-width="6" stroke-linejoin="round" stroke-linecap="round" />
<rect x="584" y="270" width="80" height="44" rx="4" fill="#bfdde6" stroke="#2e211b" stroke-width="7" stroke-linejoin="round" stroke-linecap="round" />
<rect x="578" y="310" width="92" height="14" rx="3" fill="#f6ecd8" stroke="#2e211b" stroke-width="6" stroke-linejoin="round" stroke-linecap="round" />
<rect x="360" y="340" width="80" height="44" rx="4" fill="#bfdde6" stroke="#2e211b" stroke-width="7" stroke-linejoin="round" stroke-linecap="round" />
<rect x="354" y="380" width="92" height="14" rx="3" fill="#f6ecd8" stroke="#2e211b" stroke-width="6" stroke-linejoin="round" stroke-linecap="round" />
<rect x="472" y="340" width="80" height="44" rx="4" fill="#bfdde6" stroke="#2e211b" stroke-width="7" stroke-linejoin="round" stroke-linecap="round" />
<rect x="466" y="380" width="92" height="14" rx="3" fill="#f6ecd8" stroke="#2e211b" stroke-width="6" stroke-linejoin="round" stroke-linecap="round" />
<rect x="584" y="340" width="80" height="44" rx="4" fill="#bfdde6" stroke="#2e211b" stroke-width="7" stroke-linejoin="round" stroke-linecap="round" />
<rect x="578" y="380" width="92" height="14" rx="3" fill="#f6ecd8" stroke="#2e211b" stroke-width="6" stroke-linejoin="round" stroke-linecap="round" />
<rect x="360" y="410" width="80" height="44" rx="4" fill="#bfdde6" stroke="#2e211b" stroke-width="7" stroke-linejoin="round" stroke-linecap="round" />
<rect x="354" y="450" width="92" height="14" rx="3" fill="#f6ecd8" stroke="#2e211b" stroke-width="6" stroke-linejoin="round" stroke-linecap="round" />
<rect x="472" y="410" width="80" height="44" rx="4" fill="#bfdde6" stroke="#2e211b" stroke-width="7" stroke-linejoin="round" stroke-linecap="round" />
<rect x="466" y="450" width="92" height="14" rx="3" fill="#f6ecd8" stroke="#2e211b" stroke-width="6" stroke-linejoin="round" stroke-linecap="round" />
<rect x="584" y="410" width="80" height="44" rx="4" fill="#bfdde6" stroke="#2e211b" stroke-width="7" stroke-linejoin="round" stroke-linecap="round" />
<rect x="578" y="450" width="92" height="14" rx="3" fill="#f6ecd8" stroke="#2e211b" stroke-width="6" stroke-linejoin="round" stroke-linecap="round" />
<rect x="360" y="480" width="80" height="44" rx="4" fill="#bfdde6" stroke="#2e211b" stroke-width="7" stroke-linejoin="round" stroke-linecap="round" />
<rect x="354" y="520" width="92" height="14" rx="3" fill="#f6ecd8" stroke="#2e211b" stroke-width="6" stroke-linejoin="round" stroke-linecap="round" />
<rect x="472" y="480" width="80" height="44" rx="4" fill="#bfdde6" stroke="#2e211b" stroke-width="7" stroke-linejoin="round" stroke-linecap="round" />
<rect x="466" y="520" width="92" height="14" rx="3" fill="#f6ecd8" stroke="#2e211b" stroke-width="6" stroke-linejoin="round" stroke-linecap="round" />
<rect x="584" y="480" width="80" height="44" rx="4" fill="#bfdde6" stroke="#2e211b" stroke-width="7" stroke-linejoin="round" stroke-linecap="round" />
<rect x="578" y="520" width="92" height="14" rx="3" fill="#f6ecd8" stroke="#2e211b" stroke-width="6" stroke-linejoin="round" stroke-linecap="round" />
<rect x="360" y="550" width="80" height="44" rx="4" fill="#bfdde6" stroke="#2e211b" stroke-width="7" stroke-linejoin="round" stroke-linecap="round" />
<rect x="354" y="590" width="92" height="14" rx="3" fill="#f6ecd8" stroke="#2e211b" stroke-width="6" stroke-linejoin="round" stroke-linecap="round" />
<rect x="472" y="550" width="80" height="44" rx="4" fill="#bfdde6" stroke="#2e211b" stroke-width="7" stroke-linejoin="round" stroke-linecap="round" />
<rect x="466" y="590" width="92" height="14" rx="3" fill="#f6ecd8" stroke="#2e211b" stroke-width="6" stroke-linejoin="round" stroke-linecap="round" />
<rect x="584" y="550" width="80" height="44" rx="4" fill="#bfdde6" stroke="#2e211b" stroke-width="7" stroke-linejoin="round" stroke-linecap="round" />
<rect x="578" y="590" width="92" height="14" rx="3" fill="#f6ecd8" stroke="#2e211b" stroke-width="6" stroke-linejoin="round" stroke-linecap="round" />
<rect x="360" y="620" width="80" height="44" rx="4" fill="#bfdde6" stroke="#2e211b" stroke-width="7" stroke-linejoin="round" stroke-linecap="round" />
<rect x="354" y="660" width="92" height="14" rx="3" fill="#f6ecd8" stroke="#2e211b" stroke-width="6" stroke-linejoin="round" stroke-linecap="round" />
<rect x="472" y="620" width="80" height="44" rx="4" fill="#bfdde6" stroke="#2e211b" stroke-width="7" stroke-linejoin="round" stroke-linecap="round" />
<rect x="466" y="660" width="92" height="14" rx="3" fill="#f6ecd8" stroke="#2e211b" stroke-width="6" stroke-linejoin="round" stroke-linecap="round" />
<rect x="584" y="620" width="80" height="44" rx="4" fill="#bfdde6" stroke="#2e211b" stroke-width="7" stroke-linejoin="round" stroke-linecap="round" />
<rect x="578" y="660" width="92" height="14" rx="3" fill="#f6ecd8" stroke="#2e211b" stroke-width="6" stroke-linejoin="round" stroke-linecap="round" />
<rect x="440" y="760" width="144" height="100" rx="0" fill="#bfdde6" stroke="#2e211b" stroke-width="10" stroke-linejoin="round" stroke-linecap="round" />
<line x1="512" y1="760" x2="512" y2="860" stroke="#2e211b" stroke-width="7" stroke-linecap="round" />
<line x1="476" y1="760" x2="476" y2="860" stroke="#2e211b" stroke-width="5" stroke-linecap="round" />
<line x1="548" y1="760" x2="548" y2="860" stroke="#2e211b" stroke-width="5" stroke-linecap="round" />
<path d="M396 716 L628 716 L648 762 L376 762 Z" fill="#c8574b" stroke="#2e211b" stroke-width="12" stroke-linejoin="round" stroke-linecap="round" />
<path d="M404 722 L620 722 L626 734 L400 734 Z" fill="#fff" opacity="0.3"/>
<g transform="translate(360 800) rotate(0) scale(0.6)">
<path d="M-62 0 Q-74 -40 -32 -46 Q-12 -78 22 -56 Q64 -62 62 -22 Q72 0 52 0 Z" fill="#5f8f4e" stroke="#2e211b" stroke-width="10" stroke-linejoin="round" stroke-linecap="round" />
<path d="M-44 -20 Q-46 -38 -24 -38 Q-8 -60 10 -50 Q-20 -40 -30 -18 Z" fill="#ffffff" opacity="0.3"/>
</g>
<path d="M328 800 L392 800 L384 860 L336 860 Z" fill="#d9825b" stroke="#2e211b" stroke-width="10" stroke-linejoin="round" stroke-linecap="round" />
<g transform="translate(664 800) rotate(0) scale(0.6)">
<path d="M-62 0 Q-74 -40 -32 -46 Q-12 -78 22 -56 Q64 -62 62 -22 Q72 0 52 0 Z" fill="#5f8f4e" stroke="#2e211b" stroke-width="10" stroke-linejoin="round" stroke-linecap="round" />
<path d="M-44 -20 Q-46 -38 -24 -38 Q-8 -60 10 -50 Q-20 -40 -30 -18 Z" fill="#ffffff" opacity="0.3"/>
</g>
<path d="M632 800 L696 800 L688 860 L640 860 Z" fill="#d9825b" stroke="#2e211b" stroke-width="10" stroke-linejoin="round" stroke-linecap="round" />

</svg>
