<svg xmlns="http://www.w3.org/2000/svg" width="1024" height="1024" viewBox="0 0 1024 1024">
<defs><radialGradient id="bg" cx="50%" cy="45%" r="75%"><stop offset="0%" stop-color="#f1e0dc"/><stop offset="100%" stop-color="#bf9a98"/></radialGradient></defs>
<rect width="1024" height="1024" fill="url(#bg)"/>
<g transform="translate(300,240) scale(1)"><path d="M-34 96.0 L0 190 L34 96.0 Z" fill="#fffaf0" stroke="#2e211b" stroke-linejoin="round" stroke-linecap="round" stroke-width="12"/><rect x="-110.0" y="-100.0" width="220" height="200" rx="70" fill="#fffaf0" stroke="#2e211b" stroke-linejoin="round" stroke-linecap="round" stroke-width="12"/><path d="M-34 96.0 L0 190 L34 96.0 Z" fill="#fffaf0" stroke="none" transform="translate(0,-7)"/><g transform="translate(0,0) scale(0.9)"><path d="M0 -20 C-30 -70 -100 -40 -60 20 L0 70 L60 20 C100 -40 30 -70 0 -20 Z" fill="#c8574b" stroke="#2e211b" stroke-linejoin="round" stroke-linecap="round" stroke-width="12"/></g>
</g>
<g transform="translate(724,240) scale(1)"><path d="M-34 96.0 L0 190 L34 96.0 Z" fill="#fffaf0" stroke="#2e211b" stroke-linejoin="round" stroke-linecap="round" stroke-width="12"/><rect x="-110.0" y="-100.0" width="220" height="200" rx="70" fill="#fffaf0" stroke="#2e211b" stroke-linejoin="round" stroke-linecap="round" stroke-width="12"/><path d="M-34 96.0 L0 190 L34 96.0 Z" fill="#fffaf0" stroke="none" transform="translate(0,-7)"/><g transform="translate(0,0) scale(0.9)"><path d="M0 -20 C-30 -70 -100 -40 -60 20 L0 70 L60 20 C100 -40 30 -70 0 -20 Z" fill="#c8574b" stroke="#2e211b" stroke-linejoin="round" stroke-linecap="round" stroke-width="12"/></g>
</g>
<g transform="translate(300,575) scale(0.9)"><g transform="rotate(0 0 125)"><path d="M-124 40 Q-130 -90 0 -90 Q130 -84 124 40 Q134 146 75 168 L-75 168 Q-134 146 -124 40 Z" fill="#3b2a22" stroke="#2e211b" stroke-linejoin="round" stroke-linecap="round" stroke-width="12"/></g><rect x="-24" y="100" width="48" height="70" rx="0" fill="#f1c9a5" stroke="#2e211b" stroke-linejoin="round" stroke-linecap="round" stroke-width="10"/><path d="M-114 340 Q-118 178 0 160 Q118 178 114 340 Z" fill="#d9825b" stroke="#2e211b" stroke-linejoin="round" stroke-linecap="round" stroke-width="12"/><path d="M-96 320 Q-100 220 -40 190" fill="none" stroke="#ffffff" stroke-linejoin="round" stroke-linecap="round" stroke-width="14" opacity="0.3"/><path d="M-38 166 L0 215 L38 166" fill="none" stroke="#2e211b" stroke-linejoin="round" stroke-linecap="round" stroke-width="9"/><g transform="rotate(0 0 125) translate(0,28)"><circle cx="0" cy="0" r="100" fill="#f1c9a5" stroke="#2e211b" stroke-linejoin="round" stroke-linecap="round" stroke-width="12"/><path d="M-98 -18 Q-78 -100 0 -100 Q81 -100 99 -18 Q51 -53 0 -59 Q-54 -59 -98 -18 Z" fill="#3b2a22" stroke="none"/><path d="M-50 10 Q-36 -6 -22 10 M22 10 Q36 -6 50 10" fill="none" stroke="#2e211b" stroke-linejoin="round" stroke-linecap="round" stroke-width="8"/><circle cx="-58" cy="36" r="16" fill="#e8907f" opacity="0.55"/><circle cx="58" cy="36" r="16" fill="#e8907f" opacity="0.55"/><path d="M-30 42 Q0 88 30 42 Z" fill="#a8453c" stroke="#2e211b" stroke-linejoin="round" stroke-linecap="round" stroke-width="7"/><circle cx="-101" cy="30" r="7" fill="#e0b04f" stroke="#2e211b" stroke-linejoin="round" stroke-linecap="round" stroke-width="5"/><circle cx="101" cy="30" r="7" fill="#e0b04f" stroke="#2e211b" stroke-linejoin="round" stroke-linecap="round" stroke-width="5"/></g><path d="M92 205 L170 250 L255 170" fill="none" stroke="#2e211b" stroke-width="46" stroke-linecap="round" stroke-linejoin="round"/><path d="M170 250 L255 170" fill="none" stroke="#f1c9a5" stroke-width="30" stroke-linecap="round"/><path d="M92 205 L170 250" fill="none" stroke="#d9825b" stroke-width="32" stroke-linecap="round"/><g transform="translate(255,170) rotate(-35)"><rect x="0" y="-10" width="58" height="20" rx="10" fill="#f1c9a5" stroke="#2e211b" stroke-linejoin="round" stroke-linecap="round" stroke-width="8"/></g><circle cx="255" cy="170" r="25" fill="#f1c9a5" stroke="#2e211b" stroke-linejoin="round" stroke-linecap="round" stroke-width="10"/></g>
<g transform="translate(724,575) scale(0.9)"><rect x="-24" y="100" width="48" height="70" rx="0" fill="#e0a882" stroke="#2e211b" stroke-linejoin="round" stroke-linecap="round" stroke-width="10"/><path d="M-114 340 Q-118 178 0 160 Q118 178 114 340 Z" fill="#5d82a8" stroke="#2e211b" stroke-linejoin="round" stroke-linecap="round" stroke-width="12"/><path d="M-96 320 Q-100 220 -40 190" fill="none" stroke="#ffffff" stroke-linejoin="round" stroke-linecap="round" stroke-width="14" opacity="0.3"/><path d="M-30 164 L-42 205 L0 180 L42 205 L30 164" fill="#f6ecd8" stroke="#2e211b" stroke-linejoin="round" stroke-linecap="round" stroke-width="8"/><path d="M0 185 L0 335" fill="none" stroke="#2e211b" stroke-linejoin="round" stroke-linecap="round" stroke-width="7"/><circle cx="0" cy="240" r="6" fill="#f6ecd8" stroke="#2e211b" stroke-linejoin="round" stroke-linecap="round" stroke-width="5"/><circle cx="0" cy="290" r="6" fill="#f6ecd8" stroke="#2e211b" stroke-linejoin="round" stroke-linecap="round" stroke-width="5"/><g transform="rotate(0 0 125) translate(0,28)"><circle cx="-100" cy="12" r="20" fill="#e0a882" stroke="#2e211b" stroke-linejoin="round" stroke-linecap="round" stroke-width="10"/><circle cx="100" cy="12" r="20" fill="#e0a882" stroke="#2e211b" stroke-linejoin="round" stroke-linecap="round" stroke-width="10"/><circle cx="0" cy="0" r="100" fill="#e0a882" stroke="#2e211b" stroke-linejoin="round" stroke-linecap="round" stroke-width="12"/><path d="M-102 0 Q-110 -112 0 -116 Q110 -112 102 0 Q96 -40 70 -55 Q30 -40 -10 -62 Q-60 -48 -90 -25 Z" fill="#3b2a22" stroke="#2e211b" stroke-linejoin="round" stroke-linecap="round" stroke-width="10"/><path d="M-50 10 Q-36 -6 -22 10 M22 10 Q36 -6 50 10" fill="none" stroke="#2e211b" stroke-linejoin="round" stroke-linecap="round" stroke-width="8"/><circle cx="-58" cy="36" r="16" fill="#e8907f" opacity="0.55"/><circle cx="58" cy="36" r="16" fill="#e8907f" opacity="0.55"/><path d="M-30 42 Q0 88 30 42 Z" fill="#a8453c" stroke="#2e211b" stroke-linejoin="round" stroke-linecap="round" stroke-width="7"/></g><path d="M-92 205 L-185 240 L-180 120" fill="none" stroke="#2e211b" stroke-width="46" stroke-linecap="round" stroke-linejoin="round"/><path d="M-185 240 L-180 120" fill="none" stroke="#e0a882" stroke-width="30" stroke-linecap="round"/><path d="M-92 205 L-185 240" fill="none" stroke="#5d82a8" stroke-width="32" stroke-linecap="round"/><rect x="-191" y="58" width="22" height="50" rx="11" fill="#e0a882" stroke="#2e211b" stroke-linejoin="round" stroke-linecap="round" stroke-width="9"/><rect x="-210" y="98" width="60" height="48" rx="20" fill="#e0a882" stroke="#2e211b" stroke-linejoin="round" stroke-linecap="round" stroke-width="10"/><path d="M-208 118 L-158 118 M-208 132 L-158 132" fill="none" stroke="#2e211b" stroke-linejoin="round" stroke-linecap="round" stroke-width="5"/></g>
<rect x="462" y="215" width="100" height="20" rx="10" fill="#4f9a9a" stroke="#2e211b" stroke-linejoin="round" stroke-linecap="round" stroke-width="8"/><rect x="462" y="255" width="100" height="20" rx="10" fill="#4f9a9a" stroke="#2e211b" stroke-linejoin="round" stroke-linecap="round" stroke-width="8"/>
</svg>
