<svg xmlns="http://www.w3.org/2000/svg" width="1024" height="1024" viewBox="0 0 1024 1024">
<defs><radialGradient id="bg" cx="50%" cy="45%" r="75%"><stop offset="0%" stop-color="#e3ecf1"/><stop offset="100%" stop-color="#9fb3c1"/></radialGradient></defs>
<rect width="1024" height="1024" fill="url(#bg)"/>
<g transform="translate(470 400) scale(0.85)"><path d="M-212 480 Q-212 220 0 200 Q212 220 212 480 Z" fill="#e0b04f" stroke="#2e211b" stroke-linejoin="round" stroke-linecap="round" stroke-width="16.47058823529412"/><path d="M-72 210 L0 300 L72 210" fill="none" stroke="#2e211b" stroke-linejoin="round" stroke-linecap="round" stroke-width="11.764705882352942"/><path d="M-182 460 Q-182 280 -92 240" fill="none" stroke="#fff" stroke-width="18.823529411764707" opacity="0.3" stroke-linecap="round"/><rect x="-40" y="140" width="80" height="80" fill="#f1c9a5" stroke="#2e211b" stroke-linejoin="round" stroke-linecap="round" stroke-width="14.117647058823529"/><circle cx="0" cy="0" r="170" fill="#f1c9a5" stroke="#2e211b" stroke-linejoin="round" stroke-linecap="round" stroke-width="16.47058823529412"/><path d="M-172 -5 Q-185 -205 0 -198 Q185 -205 172 -5 Q150 -95 70 -105 Q0 -80 -70 -105 Q-150 -95 -172 -5 Z" fill="#3b2a22" stroke="#2e211b" stroke-linejoin="round" stroke-linecap="round" stroke-width="16.47058823529412"/><path d="M-84 16 Q-62 -8 -40 16" fill="none" stroke="#2e211b" stroke-linejoin="round" stroke-linecap="round" stroke-width="11.764705882352942"/><path d="M40 16 Q62 -8 84 16" fill="none" stroke="#2e211b" stroke-linejoin="round" stroke-linecap="round" stroke-width="11.764705882352942"/><circle cx="-97" cy="60" r="26" fill="#e8907f" opacity="0.5"/><circle cx="97" cy="60" r="26" fill="#e8907f" opacity="0.5"/><ellipse cx="0" cy="96" rx="20" ry="24" fill="#a8453c" stroke="#2e211b" stroke-linejoin="round" stroke-linecap="round" stroke-width="11.764705882352942"/></g><path d="M475 485 L545 425 L565 600" fill="none" stroke="#2e211b" stroke-width="26" stroke-linejoin="round" stroke-linecap="round"/><path d="M475 485 L545 425 L565 600" fill="none" stroke="#c8574b" stroke-width="12" stroke-linejoin="round" stroke-linecap="round"/><g transform="translate(565 690) scale(1.1)"><path d="M-70 -110 L70 -110 L55 120 L-55 120 Z" fill="#cfe0e6" stroke="#2e211b" stroke-linejoin="round" stroke-linecap="round" stroke-width="12"/><path d="M-62 -30 L62 -30 L55 120 L-55 120 Z" fill="#d9825b" stroke="#2e211b" stroke-linejoin="round" stroke-linecap="round" stroke-width="0"/><path d="M-70 -110 L70 -110 L55 120 L-55 120 Z" fill="none" stroke="#2e211b" stroke-linejoin="round" stroke-linecap="round" stroke-width="12"/><path d="M-40 -80 L-32 90" stroke="#fff" stroke-width="12" opacity="0.5" stroke-linecap="round"/></g><path d="M600 800 L700 770 L660 710" fill="none" stroke="#2e211b" stroke-width="76" stroke-linecap="round" stroke-linejoin="round"/><path d="M600 800 L700 770 L660 710" fill="none" stroke="#e0b04f" stroke-width="50" stroke-linecap="round" stroke-linejoin="round"/><circle cx="650" cy="705" r="42" fill="#f1c9a5" stroke="#2e211b" stroke-linejoin="round" stroke-linecap="round" stroke-width="11"/>
</svg>
