<svg xmlns="http://www.w3.org/2000/svg" width="1024" height="1024" viewBox="0 0 1024 1024">
<defs><radialGradient id="bg" cx="50%" cy="45%" r="75%"><stop offset="0%" stop-color="#f5ead0"/><stop offset="100%" stop-color="#cfb27e"/></radialGradient></defs>
<rect width="1024" height="1024" fill="url(#bg)"/>
<ellipse cx="512" cy="820" rx="280" ry="44.800000000000004" fill="#2e211b" opacity="0.15"/><path d="M512 250 A250 250 0 0 0 512 750" fill="none" stroke="#2e211b" stroke-width="12" stroke-dasharray="30 26" opacity="0.4"/><path d="M512 250 A250 250 0 0 1 512 750 Z" fill="#d9825b" stroke="#2e211b" stroke-linejoin="round" stroke-linecap="round" stroke-width="15"/><path d="M530 290 A210 210 0 0 1 530 710 Z" fill="#f2b27a" stroke="#2e211b" stroke-linejoin="round" stroke-linecap="round" stroke-width="8"/><path d="M530 500 L635 318" stroke="#2e211b" stroke-linejoin="round" stroke-linecap="round" stroke-width="8"/><path d="M530 500 L712 395" stroke="#2e211b" stroke-linejoin="round" stroke-linecap="round" stroke-width="8"/><path d="M530 500 L740 500" stroke="#2e211b" stroke-linejoin="round" stroke-linecap="round" stroke-width="8"/><path d="M530 500 L712 605" stroke="#2e211b" stroke-linejoin="round" stroke-linecap="round" stroke-width="8"/><path d="M530 500 L635 682" stroke="#2e211b" stroke-linejoin="round" stroke-linecap="round" stroke-width="8"/><circle cx="530" cy="500" r="16" fill="#f6ecd8" stroke="#2e211b" stroke-linejoin="round" stroke-linecap="round" stroke-width="7"/>
</svg>
