<svg xmlns="http://www.w3.org/2000/svg" width="76" height="78" viewBox="0 0 76 78">
<g>
<g>
<ellipse cx="22.86" cy="43.74" rx="11.35" ry="13.26" fill="#c69e74"/>
<ellipse cx="22.86" cy="43.74" rx="7.04" ry="8.22" fill="#ffabba"/>
<g>
<ellipse cx="53.14" cy="43.74" rx="11.35" ry="13.26" transform="matrix(-1 0 0 1 106.27 0)" fill="#c69e74"/>
<ellipse cx="53.14" cy="43.74" rx="7.04" ry="8.22" transform="matrix(-1 0 0 1 106.27 0)" fill="#ffabba"/>
</g>
<ellipse cx="38" cy="45.63" rx="15.14" ry="16.11" fill="#f2c18d"/>
<path d="M34.22 55.11C34.22 62.68 36.11 68.37 40.84 70.26C43.68 71.21 45.57 69.32 44.62 66.95C40.84 66.47 40.84 62.68 41.78 55.11Z" fill="#f2c18d"/>
<path d="M37.05 62.68C38 63.16 38.95 63.16 39.89 62.68M38 66C38.95 66.47 39.89 66.47 40.84 66" fill="none" stroke="#c69e74" stroke-width="1.4" stroke-linecap="round"/>
<path d="M29.01 57.95C26.65 62.68 27.59 67.42 32.32 68.37" fill="none" stroke="#ffffff" stroke-width="4.5" stroke-linecap="round"/>
<path d="M46.99 57.95C49.35 62.68 48.41 67.42 43.68 68.37" fill="none" stroke="#ffffff" stroke-width="4.5" stroke-linecap="round"/>
<path d="M29.01 53.21C26.18 51.32 27.12 49.42 29.01 50.84C30.91 49.42 31.85 51.32 29.01 53.21Z" fill="#ff8fa3"/>
<path d="M46.99 53.21C44.15 51.32 45.09 49.42 46.99 50.84C48.88 49.42 49.82 51.32 46.99 53.21Z" fill="#ff8fa3"/>
<path d="M29.96 47.53C31.54 45 33.11 45 34.69 47.53" fill="none" stroke="#1d2140" stroke-width="2.8" stroke-linecap="round"/>
<path d="M41.31 47.53C42.89 45 44.46 45 46.04 47.53" fill="none" stroke="#1d2140" stroke-width="2.8" stroke-linecap="round"/>
<ellipse cx="23.81" cy="33.32" rx="2.08" ry="2.08" fill="#e0485f" stroke="#e9dfcb" stroke-width="0.8"/>
<ellipse cx="24.52" cy="31.28" rx="1.7" ry="1.71" fill="#ffffff" stroke="#e9dfcb" stroke-width="0.8"/>
<ellipse cx="26.51" cy="29.43" rx="1.7" ry="1.71" fill="#ffffff" stroke="#e9dfcb" stroke-width="0.8"/>
<ellipse cx="29.68" cy="27.96" rx="2.08" ry="2.08" fill="#e0485f" stroke="#e9dfcb" stroke-width="0.8"/>
<ellipse cx="33.6" cy="27.02" rx="1.7" ry="1.71" fill="#ffffff" stroke="#e9dfcb" stroke-width="0.8"/>
<ellipse cx="38" cy="26.68" rx="1.7" ry="1.71" fill="#ffffff" stroke="#e9dfcb" stroke-width="0.8"/>
<ellipse cx="42.4" cy="27.02" rx="2.08" ry="2.08" fill="#e0485f" stroke="#e9dfcb" stroke-width="0.8"/>
<ellipse cx="46.32" cy="27.96" rx="1.7" ry="1.71" fill="#ffffff" stroke="#e9dfcb" stroke-width="0.8"/>
<ellipse cx="49.49" cy="29.43" rx="1.7" ry="1.71" fill="#ffffff" stroke="#e9dfcb" stroke-width="0.8"/>
<ellipse cx="51.48" cy="31.28" rx="2.08" ry="2.08" fill="#e0485f" stroke="#e9dfcb" stroke-width="0.8"/>
<ellipse cx="52.19" cy="33.32" rx="1.7" ry="1.71" fill="#ffffff" stroke="#e9dfcb" stroke-width="0.8"/>
<path d="M37.05 25.74C36.11 22.89 39.89 22.89 38.95 25.74" fill="#3fa06a"/>
</g>
</g>
</svg>
